<svg viewBox="0 0 98 36" xmlns="http://www.w3.org/2000/svg" data-logo="logo">
        <g transform="translate(0, 18) rotate(0)" id="logogram"></g>
        <g transform="translate(0, 1)" id="logotype"><path d="M2.67 21.27L17.79 27.54L17.79 22.91L8.43 19.78L7.26 19.37L8.43 18.94L17.79 15.76L17.79 11.15L2.67 17.42L2.67 21.27ZM21.84 5.12L21.84 30L28.53 30Q30.18 30 31.65 29.59Q33.11 29.18 34.32 28.41L34.32 28.41Q35.36 27.76 36.23 26.80Q37.11 25.83 37.76 24.69L37.76 24.69Q38.44 23.40 38.81 21.87Q39.19 20.33 39.19 18.60L39.19 18.60L39.19 16.55Q39.19 14.76 38.79 13.17Q38.39 11.58 37.65 10.26L37.65 10.26Q37.02 9.18 36.17 8.27Q35.33 7.36 34.25 6.72L34.25 6.72Q33.02 5.95 31.52 5.54Q30.01 5.12 28.29 5.12L28.29 5.12L21.84 5.12ZM26.68 26.14L26.68 9.01L28.29 9.01Q29.16 9.01 29.90 9.21Q30.65 9.41 31.26 9.77L31.26 9.77Q32.06 10.24 32.67 11.00Q33.28 11.75 33.65 12.71L33.65 12.71Q33.96 13.51 34.12 14.47Q34.29 15.44 34.29 16.52L34.29 16.52L34.29 18.60Q34.29 19.75 34.12 20.73Q33.96 21.71 33.65 22.51L33.65 22.51Q33.28 23.44 32.76 24.13Q32.24 24.82 31.59 25.27L31.59 25.27Q30.95 25.69 30.18 25.92Q29.42 26.14 28.53 26.14L28.53 26.14L26.68 26.14ZM59.17 20.14L59.17 20.14L59.17 15.83Q59.17 14.52 58.98 13.31Q58.80 12.11 58.42 11.05L58.42 11.05Q57.91 9.54 57.02 8.33Q56.13 7.12 54.95 6.28L54.95 6.28Q53.91 5.56 52.63 5.17Q51.35 4.78 49.88 4.78L49.88 4.78Q48.41 4.78 47.16 5.17Q45.91 5.56 44.90 6.28L44.90 6.28Q43.79 7.07 42.99 8.18Q42.19 9.30 41.71 10.69L41.71 10.69Q41.30 11.80 41.08 13.11Q40.87 14.41 40.87 15.83L40.87 15.83L40.87 20.14Q40.87 21.37 41.09 22.54Q41.31 23.71 41.74 24.75L41.74 24.75Q42.22 25.95 43.00 26.99Q43.77 28.03 44.82 28.79L44.82 28.79Q45.84 29.52 47.11 29.93Q48.37 30.34 49.88 30.34L49.88 30.34Q50.54 30.34 51.17 30.26Q51.79 30.17 52.39 30.02L52.39 30.02L57.12 34.39L60.22 31.64L56.10 27.92Q56.76 27.28 57.28 26.52Q57.81 25.76 58.18 24.92L58.18 24.92Q58.66 23.85 58.91 22.63Q59.16 21.42 59.17 20.14ZM54.30 15.80L54.30 15.80L54.30 20.14Q54.30 20.82 54.22 21.50Q54.13 22.17 53.96 22.81L53.96 22.81Q53.72 23.64 53.30 24.38Q52.88 25.11 52.29 25.61L52.29 25.61Q51.81 25.97 51.21 26.18Q50.61 26.39 49.88 26.39L49.88 26.39Q49.16 26.39 48.59 26.19Q48.01 25.98 47.59 25.61L47.59 25.61Q46.99 25.11 46.59 24.36Q46.20 23.61 46.00 22.69L46.00 22.69Q45.86 22.09 45.80 21.44Q45.74 20.79 45.74 20.14L45.74 20.14L45.74 15.80Q45.74 15.03 45.79 14.32Q45.84 13.61 45.95 12.98L45.95 12.98Q46.12 11.88 46.50 11.00Q46.89 10.12 47.53 9.56L47.53 9.56Q47.98 9.17 48.56 8.96Q49.14 8.76 49.88 8.76L49.88 8.76Q50.64 8.76 51.27 8.98Q51.89 9.20 52.37 9.59L52.37 9.59Q52.87 10.06 53.26 10.71Q53.65 11.37 53.86 12.18L53.86 12.18Q54.10 12.94 54.20 13.87Q54.30 14.79 54.30 15.80ZM62.89 32.14L67.31 32.14L76.63 5.12L72.20 5.12L62.89 32.14ZM81.59 22.94L81.59 27.56L96.97 21.28L96.97 17.40L81.59 11.15L81.59 15.75L91.39 18.98L92.42 19.32L91.38 19.66L81.59 22.94Z" fill="#ffffff"></path></g>
        
      </svg>