<svg viewBox="0 0 42 36" xmlns="http://www.w3.org/2000/svg" data-logo="logo">
        <g transform="translate(0, 18) rotate(0)" id="logogram" style="opacity: 1;"></g>
        <g transform="translate(0, 1)" id="logotype" style="opacity: 1;"><path d="M2.14 5.12L2.14 30L8.82 30Q10.48 30 11.94 29.59Q13.40 29.18 14.61 28.41L14.61 28.41Q15.65 27.76 16.53 26.80Q17.40 25.83 18.05 24.69L18.05 24.69Q18.73 23.40 19.11 21.87Q19.48 20.33 19.48 18.60L19.48 18.60L19.48 16.55Q19.48 14.76 19.08 13.17Q18.68 11.58 17.94 10.26L17.94 10.26Q17.31 9.18 16.47 8.27Q15.62 7.36 14.54 6.72L14.54 6.72Q13.31 5.95 11.81 5.54Q10.31 5.12 8.58 5.12L8.58 5.12L2.14 5.12ZM6.97 26.14L6.97 9.01L8.58 9.01Q9.45 9.01 10.19 9.21Q10.94 9.41 11.55 9.77L11.55 9.77Q12.36 10.24 12.96 11.00Q13.57 11.75 13.95 12.71L13.95 12.71Q14.25 13.51 14.42 14.47Q14.58 15.44 14.58 16.52L14.58 16.52L14.58 18.60Q14.58 19.75 14.42 20.73Q14.25 21.71 13.95 22.51L13.95 22.51Q13.57 23.44 13.05 24.13Q12.53 24.82 11.88 25.27L11.88 25.27Q11.25 25.69 10.48 25.92Q9.71 26.14 8.82 26.14L8.82 26.14L6.97 26.14ZM39.46 20.14L39.46 20.14L39.46 15.83Q39.46 14.52 39.28 13.31Q39.09 12.11 38.71 11.05L38.71 11.05Q38.20 9.54 37.31 8.33Q36.42 7.12 35.24 6.28L35.24 6.28Q34.20 5.56 32.92 5.17Q31.64 4.78 30.17 4.78L30.17 4.78Q28.70 4.78 27.45 5.17Q26.20 5.56 25.19 6.28L25.19 6.28Q24.08 7.07 23.28 8.18Q22.48 9.30 22.00 10.69L22.00 10.69Q21.59 11.80 21.37 13.11Q21.16 14.41 21.16 15.83L21.16 15.83L21.16 20.14Q21.16 21.37 21.38 22.54Q21.61 23.71 22.03 24.75L22.03 24.75Q22.51 25.95 23.29 26.99Q24.07 28.03 25.11 28.79L25.11 28.79Q26.13 29.52 27.40 29.93Q28.66 30.34 30.17 30.34L30.17 30.34Q30.83 30.34 31.46 30.26Q32.08 30.17 32.68 30.02L32.68 30.02L37.41 34.39L40.51 31.64L36.39 27.92Q37.05 27.28 37.58 26.52Q38.10 25.76 38.47 24.92L38.47 24.92Q38.95 23.85 39.20 22.63Q39.45 21.42 39.46 20.14ZM34.59 15.80L34.59 15.80L34.59 20.14Q34.59 20.82 34.51 21.50Q34.42 22.17 34.25 22.81L34.25 22.81Q34.01 23.64 33.59 24.38Q33.18 25.11 32.58 25.61L32.58 25.61Q32.10 25.97 31.50 26.18Q30.90 26.39 30.17 26.39L30.17 26.39Q29.45 26.39 28.88 26.19Q28.30 25.98 27.88 25.61L27.88 25.61Q27.28 25.11 26.89 24.36Q26.49 23.61 26.29 22.69L26.29 22.69Q26.15 22.09 26.09 21.44Q26.03 20.79 26.03 20.14L26.03 20.14L26.03 15.80Q26.03 15.03 26.08 14.32Q26.13 13.61 26.24 12.98L26.24 12.98Q26.41 11.88 26.79 11.00Q27.18 10.12 27.83 9.56L27.83 9.56Q28.27 9.17 28.85 8.96Q29.43 8.76 30.17 8.76L30.17 8.76Q30.94 8.76 31.56 8.98Q32.18 9.20 32.66 9.59L32.66 9.59Q33.16 10.06 33.55 10.71Q33.94 11.37 34.15 12.18L34.15 12.18Q34.39 12.94 34.49 13.87Q34.59 14.79 34.59 15.80Z" fill="#aca6c9"></path></g>
        
      </svg>